<svg width="500" height="500" viewBox="0 0 500 500" fill="none" xmlns="http://www.w3.org/2000/svg">
<circle cx="250" cy="250" r="234" fill="white" stroke="#7E4DD0" stroke-width="32"/>
<path d="M375.713 165.729C383.734 162.022 387.231 152.514 383.524 144.493C379.816 136.472 370.308 132.975 362.287 136.682L375.713 165.729ZM38 151.206L45.5594 165.307C76.1892 148.888 100.251 145.438 121.501 147.565C143.534 149.77 163.477 157.957 187.096 167.28C210.148 176.379 236.069 186.241 266.938 188.511C298.148 190.807 333.342 185.314 375.713 165.729L369 151.206L362.287 136.682C324.265 154.256 294.475 158.45 269.285 156.597C243.753 154.719 221.856 146.598 198.845 137.515C176.4 128.655 152.035 118.461 124.688 115.724C96.557 112.908 66.1648 117.954 30.4406 137.104L38 151.206Z" fill="#7E4DD0"/>
<path d="M375.302 240.912C383.425 237.431 387.187 228.025 383.706 219.903C380.226 211.781 370.82 208.019 362.698 211.499L375.302 240.912ZM12 226.206L19.1213 240.534C52.4383 223.974 78.8404 220.399 102.3 222.576C126.449 224.817 148.265 233.134 173.644 242.423C198.522 251.527 226.197 261.274 259.098 263.517C292.292 265.781 329.861 260.386 375.302 240.912L369 226.206L362.698 211.499C321.431 229.184 288.912 233.476 261.275 231.591C233.345 229.687 209.445 221.449 184.642 212.372C160.34 203.478 134.367 193.414 105.257 190.713C75.4565 187.947 43.1278 192.867 4.87871 211.878L12 226.206Z" fill="#7E4DD0"/>
<path d="M375.393 315.873C383.494 312.342 387.198 302.913 383.667 294.813C380.136 286.712 370.707 283.008 362.607 286.538L375.393 315.873ZM18 301.206L25.2184 315.485C57.9148 298.956 83.7789 295.407 106.732 297.574C130.395 299.807 151.78 308.097 176.752 317.392C201.21 326.496 228.478 336.267 260.908 338.516C293.641 340.786 330.66 335.371 375.393 315.873L369 301.206L362.607 286.538C322.089 304.199 290.198 308.471 263.122 306.593C235.743 304.694 212.305 296.481 187.916 287.402C164.042 278.516 138.441 268.424 109.739 265.715C80.3282 262.939 48.4485 267.885 10.7816 286.927L18 301.206Z" fill="#7E4DD0"/>
</svg>
